<svg width="32" height="32" viewBox="0 0 32 32" fill="none" xmlns="http://www.w3.org/2000/svg">
  <!-- Background circle -->
  <circle cx="16" cy="16" r="16" fill="#1e1b4b"/>
  
  <!-- Microphone body -->
  <rect x="14" y="6" width="4" height="12" rx="2" fill="#a855f7"/>
  
  <!-- Microphone stand -->
  <rect x="15" y="18" width="2" height="6" fill="#a855f7"/>
  <rect x="12" y="23" width="8" height="2" rx="1" fill="#a855f7"/>
  
  <!-- Sound waves -->
  <path d="M8 12c0-4.4 3.6-8 8-8s8 3.6 8 8" stroke="#a855f7" stroke-width="1.5" fill="none" stroke-linecap="round"/>
  <path d="M10 12c0-3.3 2.7-6 6-6s6 2.7 6 6" stroke="#a855f7" stroke-width="1.5" fill="none" stroke-linecap="round"/>
  <path d="M12 12c0-2.2 1.8-4 4-4s4 1.8 4 4" stroke="#a855f7" stroke-width="1.5" fill="none" stroke-linecap="round"/>
  
  <!-- Flow elements -->
  <circle cx="6" cy="16" r="1" fill="#e879f9" opacity="0.7"/>
  <circle cx="26" cy="14" r="1" fill="#e879f9" opacity="0.7"/>
  <circle cx="4" cy="20" r="0.5" fill="#f0abfc" opacity="0.5"/>
  <circle cx="28" cy="18" r="0.5" fill="#f0abfc" opacity="0.5"/>
</svg> 